<svg width="126" height="47" viewBox="0 0 126 47" fill="none" xmlns="http://www.w3.org/2000/svg">
<path d="M0 13.5575C6.10516 24.6819 16.4671 32 28.2227 32C29.3476 32 30.4597 31.933 31.5566 31.802C31.8483 29.6045 32 27.3493 32 25.0506C32 15.6491 29.4631 6.97442 25.1832 0L21.5916 13.5575H0Z" fill="url(#paint0_linear_1278_131)"/>
<path d="M54.6764 1.96387C54.6764 1.96387 58.8781 1.96387 67.2814 1.96387C67.5436 1.96387 67.7861 1.99625 68.009 2.06101C68.73 2.29416 69.0905 2.78637 69.0905 3.53762C69.0905 3.74487 69.0447 3.93916 68.9529 4.1205C68.6907 4.67746 68.1663 5.01423 67.3797 5.13081H56.0529L54.6764 15.7585H62.8372C63.1518 15.7585 63.4468 15.8168 63.7221 15.9334C64.3645 16.2183 64.6857 16.7041 64.6857 17.3906C64.6857 17.5719 64.6529 17.7468 64.5873 17.9151C64.3514 18.4851 63.8139 18.8348 62.9749 18.9643H54.2831L52.9852 28.8731H64.1744C64.4759 28.8731 64.7578 28.9185 65.02 29.0092C65.7017 29.2812 66.0425 29.7734 66.0425 30.4858C66.0425 30.6412 66.0163 30.8031 65.9639 30.9715C65.7541 31.5803 65.2166 31.9494 64.3514 32.0789H51.2351C50.9074 32.0789 50.6058 31.9948 50.3305 31.8264C49.8061 31.4766 49.5439 30.9326 49.5439 30.1943C49.5439 30.013 50.7304 21.095 53.1032 3.44048C53.1295 3.24619 53.1819 3.06485 53.2606 2.89646C53.5359 2.27473 54.0078 1.96387 54.6764 1.96387Z" fill="#262C5B"/>
<path d="M70.8603 25.9005C70.8603 25.4601 70.8866 24.9938 70.939 24.5016C71.2143 22.2867 71.9222 20.3179 73.0628 18.5952C74.4524 16.4839 76.1239 15.4282 78.0772 15.4282C78.759 15.4282 79.421 15.5513 80.0634 15.7974L81.6562 4.60622C81.866 3.09075 82.4166 2.32654 83.308 2.31359C83.4522 2.31359 83.5964 2.32654 83.7406 2.35245C84.3437 2.49493 84.6452 3.05837 84.6452 4.04278C84.6452 4.44431 84.3634 6.72399 83.7996 10.8818C82.528 20.3503 81.8922 25.5573 81.8922 26.5028C81.8922 27.0986 82.0167 27.6556 82.2658 28.1737C82.6329 28.9509 83.1245 29.3394 83.7406 29.3394C83.8586 29.3394 83.9832 29.3265 84.1143 29.3006C84.5076 29.2229 85.0778 28.925 85.8251 28.4069C86.5592 27.8887 87.1426 27.6297 87.5752 27.6297C87.7588 27.6297 87.9292 27.6945 88.0865 27.824C88.4012 28.083 88.5585 28.4133 88.5585 28.8149C88.506 29.4884 87.9948 30.1943 87.0246 30.9326C85.8448 31.7616 84.5928 32.1761 83.2687 32.1761C81.63 32.1631 80.3911 31.3471 79.5521 29.728C79.3554 29.9612 79.1326 30.1878 78.8835 30.408C77.625 31.5479 76.3468 32.1178 75.0489 32.1178C74.223 32.1178 73.5085 31.9106 72.9055 31.4961C71.5421 30.5635 70.8603 28.6983 70.8603 25.9005ZM77.8609 27.2217C78.0314 26.9756 78.2411 26.3344 78.4902 25.2982C79.0146 23.0574 79.4144 20.7065 79.6897 18.2454C79.3882 18.103 79.0736 18.0123 78.7458 17.9734C78.5099 17.9734 78.2673 18.0058 78.0183 18.0706C76.7991 18.4073 75.7699 19.5213 74.9309 21.4124C74.1837 23.1092 73.81 24.8125 73.81 26.5222C73.81 26.6647 73.8166 26.8072 73.8297 26.9497C73.8952 28.3874 74.3016 29.1063 75.0489 29.1063C75.4291 29.0933 75.9076 28.8861 76.4844 28.4846C77.1006 28.0442 77.5594 27.6232 77.8609 27.2217Z" fill="#262C5B"/>
<path d="M89.876 17.0214C89.876 17.397 89.8104 18.2066 89.6793 19.45C89.2729 23.1286 89.0697 25.4148 89.0697 26.3085C89.0697 26.9043 89.1943 27.4613 89.4434 27.9794C89.8104 28.7566 90.3021 29.1452 90.9182 29.1452C91.0493 29.1452 91.187 29.1322 91.3312 29.1063C91.7114 29.0156 92.262 28.7112 92.983 28.1931C93.6909 27.675 94.2612 27.416 94.6938 27.416C94.8774 27.416 95.0609 27.4807 95.2444 27.6103C95.6115 27.8693 95.795 28.2126 95.795 28.64C95.7426 29.3006 95.2248 30 94.2415 30.7383C93.0354 31.5673 91.7703 31.9818 90.4463 31.9818C89.3319 31.9818 88.4077 31.5997 87.6736 30.8355C86.5723 29.6697 86.0217 27.8175 86.0217 25.2788C86.0217 24.4109 86.1987 22.7141 86.5527 20.1883C86.71 19.0096 86.8214 18.1418 86.887 17.5849C86.9001 17.4683 86.9132 17.3517 86.9263 17.2351C87.1361 15.9399 87.6736 15.2922 88.5388 15.2922C88.683 15.2922 88.8272 15.3052 88.9714 15.3311C89.5745 15.4736 89.876 16.037 89.876 17.0214ZM87.6342 11.931C87.6342 11.6978 87.6867 11.4776 87.7915 11.2704C88.0537 10.7652 88.4798 10.5127 89.0697 10.5127C89.3057 10.5127 89.5286 10.5645 89.7383 10.6681C90.2496 10.9272 90.5053 11.3481 90.5053 11.931C90.5053 12.1641 90.4528 12.3843 90.3479 12.5916C90.0858 13.0967 89.6597 13.3493 89.0697 13.3493C88.8338 13.3493 88.6109 13.2975 88.4012 13.1939C87.8899 12.9348 87.6342 12.5139 87.6342 11.931Z" fill="#262C5B"/>
<path d="M95.2051 22.345C95.2182 22.345 95.2838 22.345 95.4017 22.345C96.2014 22.3579 96.9159 22.3644 97.5452 22.3644L98.784 14.1848C99.977 6.30951 102.389 2.3654 106.021 2.35245C106.742 2.35245 107.371 2.46255 107.908 2.68274C109.324 3.25266 110.032 4.46374 110.032 6.31598C110.032 7.00248 109.947 7.72135 109.777 8.47261C109.174 11.1797 107.613 13.9969 105.096 16.9243C103.51 18.7765 102.029 20.143 100.652 21.0238L100.456 22.3644H102.481C102.809 22.3644 103.104 22.4292 103.366 22.5587C103.851 22.8048 104.093 23.2128 104.093 23.7827C104.093 24.0159 104.034 24.2425 103.917 24.4627C103.615 24.942 103.13 25.1816 102.461 25.1816H100.043L99.1183 31.5932C102.553 29.0156 104.388 27.6232 104.624 27.416C105.149 27.0015 105.654 26.7942 106.139 26.7942C106.309 26.7942 106.486 26.8525 106.67 26.9691C107.05 27.2282 107.24 27.5584 107.24 27.96C107.227 28.5429 106.866 29.1452 106.158 29.7669C104.769 30.9067 102.232 32.8755 98.5481 35.6733L97.6042 42.1238C97.4075 43.4191 96.9159 44.4423 96.1293 45.1936C95.251 46.0096 94.1694 46.4176 92.8847 46.4176C91.6917 46.4176 90.6364 45.9707 89.7187 45.077C88.801 44.1833 88.3422 43.173 88.3422 42.0461C88.3422 40.958 88.5978 40.0578 89.1091 39.3454C89.4106 38.9309 90.0005 38.3934 90.8789 37.7328C90.892 37.7199 90.9379 37.6875 91.0165 37.6357C91.8687 37.001 93.4549 35.8223 95.7754 34.0996L97.1322 25.1816H95.2051C95.0871 25.1816 94.9757 25.1751 94.8708 25.1622C94.0187 25.0586 93.5926 24.5987 93.5926 23.7827C93.5926 23.5884 93.6188 23.4071 93.6713 23.2387C93.8941 22.6429 94.4054 22.345 95.2051 22.345ZM106.06 5.28624C104.946 5.3251 103.995 6.23827 103.209 8.02574C102.527 9.60597 101.93 12.203 101.419 15.8168C101.34 16.4385 101.281 16.853 101.242 17.0603C102.12 16.2313 103.032 15.1692 103.975 13.8739C106.099 10.9725 107.161 8.51794 107.161 6.51027C107.161 6.40665 107.135 6.2836 107.083 6.14112C106.886 5.5712 106.545 5.28624 106.06 5.28624ZM94.7921 40.5695C94.7921 40.5695 94.9036 39.7793 95.1264 38.1991C93.763 39.2224 93.042 39.7729 92.9633 39.8506C92.0194 40.5371 91.5409 41.1977 91.5278 41.8323C91.5278 42.0525 91.5672 42.2598 91.6458 42.4541C91.8687 43.024 92.2816 43.309 92.8847 43.309C93.1207 43.309 93.3435 43.2701 93.5533 43.1924C94.1956 42.9333 94.6086 42.059 94.7921 40.5695Z" fill="#262C5B"/>
<path d="M110.288 15.4282C111.127 15.4412 111.559 15.9463 111.586 16.9437C111.586 17.138 111.533 17.5589 111.428 18.2066C110.983 21.095 110.76 23.1869 110.76 24.4822C110.76 27.28 111.481 28.6918 112.923 28.7177C113.238 28.6918 113.539 28.5882 113.827 28.4069C115.047 27.6297 115.964 25.1428 116.58 20.9461C116.738 19.8581 116.849 18.647 116.915 17.3128C116.928 17.1833 116.934 17.1056 116.934 17.0797C116.948 16.989 116.961 16.9048 116.974 16.8271C117.131 15.9593 117.623 15.5254 118.449 15.5254C118.606 15.5254 118.763 15.5513 118.921 15.6031C119.511 15.8103 119.805 16.3673 119.805 17.274C119.805 17.3776 119.799 17.5201 119.786 17.7014C119.786 17.818 119.786 17.8957 119.786 17.9346L117.8 32.2538C120.959 29.9094 122.821 28.4975 123.384 28.0183C123.896 27.6038 124.4 27.3965 124.899 27.3965C125.069 27.3965 125.246 27.4483 125.43 27.552C125.81 27.7981 126 28.1284 126 28.5429C125.987 29.1516 125.626 29.7539 124.918 30.3498C123.594 31.4637 121.038 33.4519 117.249 36.3145L116.364 42.7067C116.141 44.2351 115.433 45.3943 114.24 46.1845C113.401 46.7285 112.543 47.0005 111.664 47.0005C110.458 47.0005 109.39 46.5536 108.459 45.6599C107.554 44.7661 107.102 43.7623 107.102 42.6484C107.102 41.4697 107.397 40.5112 107.987 39.7729C108.289 39.3972 108.898 38.8727 109.816 38.1991C109.934 38.0696 111.507 36.8974 114.535 34.6824C114.706 33.5167 114.883 32.3833 115.066 31.2824C114.306 31.6321 113.428 31.8069 112.431 31.8069C111.959 31.8069 111.514 31.7487 111.094 31.6321C108.8 30.9456 107.653 28.4522 107.653 24.1519C107.666 22.0147 107.895 19.9358 108.341 17.9151C108.708 16.3479 109.357 15.5189 110.288 15.4282ZM113.572 41.1718C113.572 41.1718 113.683 40.3752 113.906 38.782C112.556 39.7923 111.828 40.3428 111.723 40.4335C110.779 41.1588 110.301 41.8194 110.288 42.4152C110.288 42.6354 110.327 42.8491 110.406 43.0564C110.629 43.6263 111.048 43.9113 111.664 43.9113C111.9 43.9113 112.11 43.8724 112.294 43.7947C112.949 43.5486 113.375 42.6743 113.572 41.1718Z" fill="#262C5B"/>
<defs>
<linearGradient id="paint0_linear_1278_131" x1="30.3673" y1="9.98569e-07" x2="-4.87093" y2="6.8269" gradientUnits="userSpaceOnUse">
<stop stop-color="#F53939"/>
<stop offset="0.203125" stop-color="#FF6F1E"/>
<stop offset="1" stop-color="#FFC939"/>
</linearGradient>
</defs>
</svg>
